<svg id="Layer_1" height="512" viewBox="0 0 512 512" width="512" xmlns="http://www.w3.org/2000/svg" data-name="Layer 1"><path d="m402.59 164.56-.01.43v81.53l-66.94 25.98v-96.99l52.9-20.56.25-.1a15.162 15.162 0 0 0 13.8 9.71z" fill="#f3ce7d"/><path d="m335.64 175.51v96.99l-79.64 30.9v-81.95a15.168 15.168 0 0 0 15.17-15.17 15.016 15.016 0 0 0 -.97-5.34z" fill="#a5e2fb"/><path d="m335.64 272.5v106.42l-65.29 25.33a15.168 15.168 0 0 0 -14.35-10.25v-90.6z" fill="#f3ce7d"/><path d="m335.64 175.18v.33l-65.44 25.43a15.171 15.171 0 0 0 -28.4 0l-65.42-25.39 84.22-29.31z" fill="#e87187"/><path d="m388.79 154.85-.25.1-52.9 20.56v-.33l-75.04-28.94 63.41-22.07 64.42 20.83a15.213 15.213 0 0 0 .36 9.85z" fill="#a5e2fb"/><path d="m402.58 246.52v91.55a15.155 15.155 0 0 0 -14.8 15.16 14.973 14.973 0 0 0 .89 5.12l-.13.04-52.9 20.53v-106.42z" fill="#e87187"/><path d="m240.83 206.28a15.016 15.016 0 0 1 .97-5.34l-65.6-25.39-.2.01v96.94l80 30.9v-81.95a15.168 15.168 0 0 1 -15.17-15.17z" fill="#f3ce7d"/><path d="m260.6 146.24-84.22 29.31-53.38-20.71-.16-.07a15.014 15.014 0 0 0 1.38-6.32 14.622 14.622 0 0 0 -.42-3.52l72.56-23.47h.01z" fill="#f3ce7d"/><path d="m324.01 124.17-63.41 22.07-64.23-24.78 45.12-14.59.13-.04a15.174 15.174 0 0 0 28.76 0l.13.04z" fill="#e87187"/><path d="m176.38 175.55-.02.01v96.94l-66.94-25.98v-82.48l-.01-.43a15.133 15.133 0 0 0 13.43-8.84l.16.07z" fill="#a5e2fb"/><path d="m176 272.5v106.57l65.47 25.18a15.4 15.4 0 0 1 14.53-10.25v-90.6z" fill="#a5e2fb"/><path d="m176.36 272.5v106.57l-53.3-20.55-.15-.07a15.168 15.168 0 0 0 -13.49-21.33v-90.6z" fill="#f3ce7d"/><path d="m387.636 144.759a16 16 0 1 1 15.314 20.641c-.127 0-.253 0-.38-.011a16 16 0 0 1 -14.934-20.63z" fill="#5fa8ed"/><path d="m402.56 337.241c.126-.011.263-.011.39-.011a16 16 0 1 1 -15.061 21.4 15.786 15.786 0 0 1 -.939-5.4 15.984 15.984 0 0 1 15.61-15.989z" fill="#5fa8ed"/><path d="m272 101.99a16 16 0 1 1 -16-15.99 16.038 16.038 0 0 1 16 15.99z" fill="#5fa8ed"/><path d="m270.977 200.648a16 16 0 1 1 -14.977-10.368 15.847 15.847 0 0 1 14.977 10.368z" fill="#5fa8ed"/><path d="m271.135 403.981a16 16 0 1 1 -15.135-10.811 15.939 15.939 0 0 1 15.135 10.811z" fill="#5fa8ed"/><path d="m196 251.08v60.92l49.865-30.465z" fill="#5fcda4"/><path d="m139 161.048-16-6.208-.16-.07a15.445 15.445 0 0 1 -13.64 8.84l-.2.43v82.48l30 11.48z" fill="#82b1bf"/><path d="m109 246.52v90.6a14.825 14.825 0 0 1 15.01 15.16 15.034 15.034 0 0 1 -1.2 6.17l.2.07 15.99 6.146v-106.666z" fill="#c9a969"/><path d="m109.44 336.291a15.753 15.753 0 1 1 -.39-.011c.127 0 .264 0 .39.011z" fill="#5fa8ed"/><path d="m124.607 144.737a15.444 15.444 0 0 1 .443 3.713 16 16 0 0 1 -15.62 15.989c-.127.011-.253.011-.38.011a16 16 0 1 1 15.557-19.713z" fill="#5fa8ed"/><g fill="#284268"><path d="m380.628 376.493-2.865 1.132a6 6 0 1 0 4.409 11.16l2.865-1.132a6 6 0 1 0 -4.409-11.16z"/><path d="m306.23 418.787 56.17-22.187a6 6 0 0 0 -4.41-11.161l-56.164 22.189a6 6 0 1 0 4.409 11.16z"/><path d="m281.337 44.292a167.091 167.091 0 0 1 65.7 22.784l-24.6 14.26a6 6 0 1 0 6.018 10.382l36.989-21.44a6 6 0 0 0 2.179-8.205l-21.49-36.986a6 6 0 0 0 -10.376 6.029l13.6 23.4a179.271 179.271 0 0 0 -66.557-22.134 6 6 0 1 0 -1.465 11.91z"/><path d="m237.472 44.792a5.974 5.974 0 0 0 .87-.064 160.689 160.689 0 0 1 19.6-1.624 6 6 0 1 0 -.255-12 172.547 172.547 0 0 0 -21.075 1.746 6 6 0 0 0 .856 11.939z"/><path d="m149.572 86.983a5.979 5.979 0 0 0 4.069-1.591 161.352 161.352 0 0 1 34.524-24.42 156.587 156.587 0 0 1 19.675-8.64 6 6 0 1 0 -4.057-11.293 168.677 168.677 0 0 0 -21.187 9.3 173.407 173.407 0 0 0 -37.096 26.235 6 6 0 0 0 4.071 10.409z"/><path d="m230.663 467.708a167.091 167.091 0 0 1 -65.7-22.784l24.6-14.26a6 6 0 1 0 -6.018-10.382l-36.989 21.44a6 6 0 0 0 -2.179 8.205l21.49 36.986a6 6 0 0 0 10.376-6.029l-13.6-23.4a179.271 179.271 0 0 0 66.557 22.134 6.186 6.186 0 0 0 .74.045 6 6 0 0 0 .725-11.955z"/><path d="m273.658 467.272a160.689 160.689 0 0 1 -19.6 1.624 6 6 0 0 0 .125 12h.13a172.547 172.547 0 0 0 21.075-1.746 6 6 0 0 0 -1.726-11.875z"/><path d="m358.359 426.608a161.352 161.352 0 0 1 -34.524 24.42 156.587 156.587 0 0 1 -19.675 8.64 6 6 0 1 0 4.057 11.293 168.677 168.677 0 0 0 21.187-9.3 173.407 173.407 0 0 0 37.1-26.232 6 6 0 1 0 -8.14-8.818z"/><path d="m409 181.894v-12.111a20.941 20.941 0 0 0 15.331-20.383 21.263 21.263 0 0 0 -38.953-11.7l-108.218-35c.008-.237.022-.47.022-.709a21.174 21.174 0 0 0 -42.348 0c0 .239.027.472.035.709l-107.712 34.837a21.157 21.157 0 0 0 -18.106-10.257 21.376 21.376 0 0 0 -21.381 21.169 20.942 20.942 0 0 0 15.33 20.387v13.058c-80.809 13.854-98 33.488-98 47.668 0 15.32 19.241 28.371 57.169 38.788 12.014 3.3 25.761 6.269 40.831 8.857v54.693a20.942 20.942 0 0 0 -15.331 20.387 21.266 21.266 0 0 0 37.59 13.532l109.6 42.264c-.019.363-.042.72-.042 1.087a21.174 21.174 0 0 0 42.348 0c0-.37-.035-.731-.054-1.1l108.859-42.247a21.132 21.132 0 0 0 16.978 8.577 21.375 21.375 0 0 0 21.381-21.169 20.94 20.94 0 0 0 -15.329-20.388v-55.615c10.7-1.842 20.776-3.884 30.078-6.116 45.07-10.812 67.922-24.797 67.922-41.55 0-14.18-17.19-33.814-98-47.668zm-22.4-19.594c2.612 3.382 5.4 5.964 10.4 7.282v72.831l-55 21.32v-84.112zm10.4 92.984v11.747c-13.875 2.146-28.726 3.966-44.313 5.431zm-141-162.459a9.169 9.169 0 1 1 -9.169 9.169 9.179 9.179 0 0 1 9.169-9.169zm-17.347 21.266a21.121 21.121 0 0 0 34.694 0l31.807 10.286-44.446 15.47-46.382-17.889zm10.316 162.216-49.869-30.354a5.986 5.986 0 0 0 -9.1 5.125v20.4l-8-3.087v-84.071l52.729 20.393c-.038.519.011 1.039.011 1.568a21.28 21.28 0 0 0 15.26 20.29v50.543a6.031 6.031 0 0 0 -1.031-.807zm1.031 9.444v8.887l-8.736-3.39 7.706-4.691a5.969 5.969 0 0 0 1.03-.806zm-15.672-4.319-32.328 19.678v-39.356zm12.5-75.151a9.169 9.169 0 1 1 9.172 9.169 9.179 9.179 0 0 1 -9.169-9.169zm9.172-21.169a21.125 21.125 0 0 0 -16.83 8.381l-45.434-17.632 66.764-23.235 58.964 22.741-46.63 18.124a21.127 21.127 0 0 0 -16.834-8.379zm-156.118-36.663a9.169 9.169 0 1 1 9.169 9.169 9.18 9.18 0 0 1 -9.169-9.169zm15.118 106.835 44.279 17.165c-15.592-1.471-30.441-3.3-44.279-5.435zm-49.653 1.494c-35.64-9.788-48.342-20.477-48.342-27.216 0-10.314 26.678-25.047 86-35.482v70.956c-13.871-2.436-26.532-5.202-37.658-8.258zm43.7 104.673a9.169 9.169 0 1 1 9.169-9.169 9.18 9.18 0 0 1 -9.165 9.169zm60.953 8.877-40.123-15.546a21.411 21.411 0 0 0 .04-2.5 20.782 20.782 0 0 0 -14.917-20.182v-52.955c17.063 2.587 35.567 4.7 55 6.286zm0-106.6-55-21.32v-73.775a20.514 20.514 0 0 0 9.785-6.505l45.215 17.535zm-39.97-112.59c.082-.647.131-1.3.153-1.968l66-21.346 46.991 18.124-66.7 23.215zm108.67 245.621-56.7-21.8v-88.629q3.979.274 8 .519v24.937a5.988 5.988 0 0 0 9.1 5.125l29.246-17.8 21.65 8.4v81.365a21.677 21.677 0 0 0 -11.296 7.883zm17.3 21.575a9.169 9.169 0 1 1 9.169-9.169 9.179 9.179 0 0 1 -9.169 9.169zm74-43.522-56.71 21.938a21.676 21.676 0 0 0 -11.29-7.875v-81.365l52.415-20.232q7.875-.417 15.585-.945zm0-106.423-18.147 7q-14.718.75-29.929 1.106a6 6 0 0 0 -2.464 11.4l-17.46 6.743v-68.067a21.2 21.2 0 0 0 15.169-20.29c0-.531.14-1.051.1-1.572l52.731-20.424zm-51.975-121.864 46.052-16.025 57.715 18.665c0 .079-.012.156-.012.235 0 .578.041 1.147.087 1.713l-45.8 17.8zm103.968 206.7c0 .446.114.882.142 1.321l-40.135 15.609v-84.715c19.446-1.574 37.923-3.68 55-6.27v53.875a20.863 20.863 0 0 0 -15.007 20.184zm30.125 0a9.169 9.169 0 1 1 -9.169-9.168 9.179 9.179 0 0 1 9.169 9.172zm-9.169-194.663a9.169 9.169 0 1 1 9.169-9.169 9.179 9.179 0 0 1 -9.169 9.173zm78.245 85.214c-10.363 5.727-25.475 11-44.917 15.663-8.469 2.033-17.6 3.9-27.277 5.608v-70.974c67.651 11.867 86 27.754 86 35.489 0 4.249-4.9 9.298-13.806 14.218z"/></g></svg>